<svg width="746" height="768" viewBox="0 0 746 768" fill="none" xmlns="http://www.w3.org/2000/svg">
<g id="intro 1">
<g clip-path="url(#clip0)">
<path id="Vector" d="M-28.59 -82C-17.515 -76.694 32.321 -74.926 111.689 -18.33C191.057 38.266 207.669 31.193 215.053 112.549C222.437 193.905 250.123 209.823 274.118 245.196C298.113 280.569 357.178 338.933 407.018 363.696C456.858 388.459 464.237 416.755 480.849 455.664C497.461 494.573 593.441 514.029 611.899 524.64C630.357 535.251 595.287 522.871 495.615 574.161C395.943 625.451 368.253 584.771 248.276 634.293C128.299 683.815 113.534 802.312 65.544 784.625C17.554 766.938 -34.128 782.856 -28.591 706.806C-23.054 630.756 -28.59 -82 -28.59 -82Z" fill="url(#paint0_linear)"/>
<path id="Vector_2" d="M413.807 96.293H170.807C140.431 96.293 115.807 120.917 115.807 151.293V230.293C115.807 260.669 140.431 285.293 170.807 285.293H413.807C444.183 285.293 468.807 260.669 468.807 230.293V151.293C468.807 120.917 444.183 96.293 413.807 96.293Z" fill="white"/>
<path id="Vector_3" d="M169.307 179.293C187.809 179.293 202.807 164.071 202.807 145.293C202.807 126.515 187.809 111.293 169.307 111.293C150.805 111.293 135.807 126.515 135.807 145.293C135.807 164.071 150.805 179.293 169.307 179.293Z" fill="#FDBA9F"/>
<path id="Vector_4" d="M287.807 179.293C306.032 179.293 320.807 164.071 320.807 145.293C320.807 126.515 306.032 111.293 287.807 111.293C269.582 111.293 254.807 126.515 254.807 145.293C254.807 164.071 269.582 179.293 287.807 179.293Z" fill="#BE5535"/>
<path id="Vector_5" d="M415.807 179.293C434.585 179.293 449.807 164.071 449.807 145.293C449.807 126.515 434.585 111.293 415.807 111.293C397.029 111.293 381.807 126.515 381.807 145.293C381.807 164.071 397.029 179.293 415.807 179.293Z" fill="#132F5D"/>
<path id="Vector_6" d="M427.307 213.293H158.307C145.881 213.293 135.807 223.367 135.807 235.793C135.807 248.219 145.881 258.293 158.307 258.293H427.307C439.733 258.293 449.807 248.219 449.807 235.793C449.807 223.367 439.733 213.293 427.307 213.293Z" fill="url(#paint1_linear)"/>
<path id="#FDBA9F" d="M152.551 187.517L152.191 189.365H152.975C153.044 189.365 153.103 189.389 153.151 189.437C153.204 189.485 153.231 189.544 153.231 189.613C153.231 189.677 153.207 189.73 153.159 189.773C153.111 189.816 153.05 189.837 152.975 189.837H152.103L151.847 191.141C151.836 191.2 151.807 191.248 151.759 191.285C151.716 191.317 151.666 191.333 151.607 191.333C151.532 191.333 151.471 191.309 151.423 191.261C151.375 191.213 151.351 191.154 151.351 191.085C151.351 191.053 151.354 191.029 151.359 191.013L151.591 189.837H150.311L150.055 191.141C150.05 191.194 150.023 191.24 149.975 191.277C149.932 191.314 149.882 191.333 149.823 191.333C149.754 191.333 149.695 191.309 149.647 191.261C149.599 191.213 149.575 191.154 149.575 191.085C149.575 191.053 149.578 191.029 149.583 191.013L149.815 189.837H149.279C149.204 189.837 149.143 189.813 149.095 189.765C149.047 189.717 149.023 189.658 149.023 189.589C149.023 189.525 149.047 189.472 149.095 189.429C149.143 189.386 149.204 189.365 149.279 189.365H149.903L150.263 187.517H149.439C149.37 187.517 149.308 187.493 149.255 187.445C149.207 187.397 149.183 187.338 149.183 187.269C149.183 187.205 149.207 187.152 149.255 187.109C149.303 187.066 149.364 187.045 149.439 187.045H150.351L150.599 185.781C150.61 185.722 150.636 185.677 150.679 185.645C150.727 185.608 150.78 185.589 150.839 185.589C150.914 185.589 150.972 185.613 151.015 185.661C151.063 185.704 151.087 185.762 151.087 185.837C151.087 185.869 151.084 185.893 151.079 185.909L150.855 187.045H152.135L152.383 185.781C152.388 185.728 152.415 185.682 152.463 185.645C152.511 185.608 152.564 185.589 152.623 185.589C152.698 185.589 152.756 185.613 152.799 185.661C152.847 185.704 152.871 185.762 152.871 185.837C152.871 185.869 152.868 185.893 152.863 185.909L152.639 187.045H153.135C153.21 187.045 153.271 187.069 153.319 187.117C153.367 187.165 153.391 187.224 153.391 187.293C153.391 187.357 153.367 187.41 153.319 187.453C153.271 187.496 153.21 187.517 153.135 187.517H152.551ZM152.047 187.517H150.767L150.399 189.365H151.679L152.047 187.517ZM154.628 191.333C154.527 191.333 154.447 191.304 154.388 191.245C154.329 191.181 154.3 191.098 154.3 190.997V185.973C154.3 185.877 154.329 185.8 154.388 185.741C154.452 185.682 154.535 185.653 154.636 185.653H157.548C157.644 185.653 157.719 185.677 157.772 185.725C157.825 185.773 157.852 185.842 157.852 185.933C157.852 186.018 157.825 186.085 157.772 186.133C157.719 186.181 157.644 186.205 157.548 186.205H154.948V188.149H157.388C157.484 188.149 157.559 188.173 157.612 188.221C157.665 188.269 157.692 188.338 157.692 188.429C157.692 188.514 157.665 188.581 157.612 188.629C157.559 188.677 157.484 188.701 157.388 188.701H154.948V190.997C154.948 191.098 154.919 191.181 154.86 191.245C154.807 191.304 154.729 191.333 154.628 191.333ZM159.089 191.293C158.988 191.293 158.905 191.264 158.841 191.205C158.782 191.146 158.753 191.069 158.753 190.973V185.973C158.753 185.877 158.782 185.8 158.841 185.741C158.905 185.682 158.988 185.653 159.089 185.653H160.649C161.55 185.653 162.246 185.898 162.737 186.389C163.233 186.874 163.481 187.568 163.481 188.469C163.481 189.37 163.233 190.066 162.737 190.557C162.241 191.048 161.545 191.293 160.649 191.293H159.089ZM160.609 190.733C162.07 190.733 162.801 189.978 162.801 188.469C162.801 186.965 162.07 186.213 160.609 186.213H159.409V190.733H160.609ZM167.867 188.397C168.192 188.482 168.443 188.642 168.619 188.877C168.8 189.112 168.891 189.405 168.891 189.757C168.891 190.253 168.728 190.634 168.403 190.901C168.078 191.162 167.616 191.293 167.019 191.293H165.003C164.902 191.293 164.819 191.264 164.755 191.205C164.696 191.146 164.667 191.069 164.667 190.973V185.973C164.667 185.877 164.696 185.8 164.755 185.741C164.819 185.682 164.902 185.653 165.003 185.653H166.931C167.512 185.653 167.963 185.781 168.283 186.037C168.603 186.293 168.763 186.656 168.763 187.125C168.763 187.429 168.683 187.69 168.523 187.909C168.368 188.128 168.15 188.29 167.867 188.397ZM165.315 188.157H166.835C167.256 188.157 167.574 188.072 167.787 187.901C168.006 187.73 168.115 187.482 168.115 187.157C168.115 186.517 167.688 186.197 166.835 186.197H165.315V188.157ZM166.955 190.749C167.398 190.749 167.723 190.669 167.931 190.509C168.144 190.344 168.251 190.088 168.251 189.741C168.251 189.048 167.819 188.701 166.955 188.701H165.315V190.749H166.955ZM174.859 190.917C174.88 190.96 174.891 191.005 174.891 191.053C174.891 191.133 174.859 191.2 174.795 191.253C174.736 191.306 174.664 191.333 174.579 191.333C174.446 191.333 174.352 191.269 174.299 191.141L173.731 189.845H170.715L170.139 191.141C170.086 191.269 169.992 191.333 169.859 191.333C169.774 191.333 169.699 191.306 169.635 191.253C169.571 191.194 169.539 191.125 169.539 191.045C169.539 191.002 169.55 190.96 169.571 190.917L171.859 185.829C171.891 185.754 171.939 185.698 172.003 185.661C172.067 185.624 172.136 185.605 172.211 185.605C172.291 185.605 172.363 185.626 172.427 185.669C172.491 185.706 172.539 185.76 172.571 185.829L174.859 190.917ZM173.491 189.301L172.219 186.429L170.955 189.301H173.491ZM177.344 185.589C178.026 185.589 178.552 185.826 178.92 186.301C179.293 186.776 179.48 187.453 179.48 188.333C179.48 188.962 179.394 189.504 179.224 189.957C179.053 190.41 178.805 190.757 178.48 190.997C178.154 191.237 177.768 191.357 177.32 191.357C177.016 191.357 176.712 191.298 176.408 191.181C176.109 191.064 175.853 190.904 175.64 190.701C175.549 190.616 175.504 190.525 175.504 190.429C175.504 190.349 175.525 190.282 175.568 190.229C175.61 190.176 175.661 190.149 175.72 190.149C175.794 190.149 175.872 190.178 175.952 190.237C176.416 190.616 176.866 190.805 177.304 190.805C177.778 190.805 178.149 190.589 178.416 190.157C178.682 189.725 178.816 189.12 178.816 188.341V188.237C178.693 188.536 178.493 188.77 178.216 188.941C177.944 189.112 177.634 189.197 177.288 189.197C176.946 189.197 176.642 189.122 176.376 188.973C176.109 188.824 175.901 188.613 175.752 188.341C175.602 188.069 175.528 187.757 175.528 187.405C175.528 187.058 175.605 186.746 175.76 186.469C175.914 186.192 176.13 185.976 176.408 185.821C176.685 185.666 176.997 185.589 177.344 185.589ZM177.384 188.645C177.752 188.645 178.05 188.53 178.28 188.301C178.514 188.066 178.632 187.765 178.632 187.397C178.632 187.024 178.514 186.722 178.28 186.493C178.05 186.258 177.749 186.141 177.376 186.141C177.013 186.141 176.722 186.256 176.504 186.485C176.285 186.714 176.175 187.018 176.175 187.397C176.175 187.776 176.285 188.08 176.504 188.309C176.728 188.533 177.021 188.645 177.384 188.645ZM180.94 191.333C180.839 191.333 180.759 191.304 180.7 191.245C180.642 191.181 180.612 191.098 180.612 190.997V185.973C180.612 185.877 180.642 185.8 180.7 185.741C180.764 185.682 180.847 185.653 180.948 185.653H183.86C183.956 185.653 184.031 185.677 184.084 185.725C184.138 185.773 184.164 185.842 184.164 185.933C184.164 186.018 184.138 186.085 184.084 186.133C184.031 186.181 183.956 186.205 183.86 186.205H181.26V188.149H183.7C183.796 188.149 183.871 188.173 183.924 188.221C183.978 188.269 184.004 188.338 184.004 188.429C184.004 188.514 183.978 188.581 183.924 188.629C183.871 188.677 183.796 188.701 183.7 188.701H181.26V190.997C181.26 191.098 181.231 191.181 181.172 191.245C181.119 191.304 181.042 191.333 180.94 191.333Z" fill="#FDBA9F"/>
<path id="#BE5535" d="M272.019 188.045L271.614 190.124H272.496C272.574 190.124 272.64 190.151 272.694 190.205C272.754 190.259 272.784 190.325 272.784 190.403C272.784 190.475 272.757 190.535 272.703 190.583C272.649 190.631 272.58 190.655 272.496 190.655H271.515L271.227 192.122C271.215 192.188 271.182 192.242 271.128 192.284C271.08 192.32 271.023 192.338 270.957 192.338C270.873 192.338 270.804 192.311 270.75 192.257C270.696 192.203 270.669 192.137 270.669 192.059C270.669 192.023 270.672 191.996 270.678 191.978L270.939 190.655H269.499L269.211 192.122C269.205 192.182 269.175 192.233 269.121 192.275C269.073 192.317 269.016 192.338 268.95 192.338C268.872 192.338 268.806 192.311 268.752 192.257C268.698 192.203 268.671 192.137 268.671 192.059C268.671 192.023 268.674 191.996 268.68 191.978L268.941 190.655H268.338C268.254 190.655 268.185 190.628 268.131 190.574C268.077 190.52 268.05 190.454 268.05 190.376C268.05 190.304 268.077 190.244 268.131 190.196C268.185 190.148 268.254 190.124 268.338 190.124H269.04L269.445 188.045H268.518C268.44 188.045 268.371 188.018 268.311 187.964C268.257 187.91 268.23 187.844 268.23 187.766C268.23 187.694 268.257 187.634 268.311 187.586C268.365 187.538 268.434 187.514 268.518 187.514H269.544L269.823 186.092C269.835 186.026 269.865 185.975 269.913 185.939C269.967 185.897 270.027 185.876 270.093 185.876C270.177 185.876 270.243 185.903 270.291 185.957C270.345 186.005 270.372 186.071 270.372 186.155C270.372 186.191 270.369 186.218 270.363 186.236L270.111 187.514H271.551L271.83 186.092C271.836 186.032 271.866 185.981 271.92 185.939C271.974 185.897 272.034 185.876 272.1 185.876C272.184 185.876 272.25 185.903 272.298 185.957C272.352 186.005 272.379 186.071 272.379 186.155C272.379 186.191 272.376 186.218 272.37 186.236L272.118 187.514H272.676C272.76 187.514 272.829 187.541 272.883 187.595C272.937 187.649 272.964 187.715 272.964 187.793C272.964 187.865 272.937 187.925 272.883 187.973C272.829 188.021 272.76 188.045 272.676 188.045H272.019ZM271.452 188.045H270.012L269.598 190.124H271.038L271.452 188.045ZM277.586 189.035C277.952 189.131 278.234 189.311 278.432 189.575C278.636 189.839 278.738 190.169 278.738 190.565C278.738 191.123 278.555 191.552 278.189 191.852C277.823 192.146 277.304 192.293 276.632 192.293H274.364C274.25 192.293 274.157 192.26 274.085 192.194C274.019 192.128 273.986 192.041 273.986 191.933V186.308C273.986 186.2 274.019 186.113 274.085 186.047C274.157 185.981 274.25 185.948 274.364 185.948H276.533C277.187 185.948 277.694 186.092 278.054 186.38C278.414 186.668 278.594 187.076 278.594 187.604C278.594 187.946 278.504 188.24 278.324 188.486C278.15 188.732 277.904 188.915 277.586 189.035ZM274.715 188.765H276.425C276.899 188.765 277.256 188.669 277.496 188.477C277.742 188.285 277.865 188.006 277.865 187.64C277.865 186.92 277.385 186.56 276.425 186.56H274.715V188.765ZM276.56 191.681C277.058 191.681 277.424 191.591 277.658 191.411C277.898 191.225 278.018 190.937 278.018 190.547C278.018 189.767 277.532 189.377 276.56 189.377H274.715V191.681H276.56ZM280.429 192.293C280.315 192.293 280.222 192.26 280.15 192.194C280.084 192.128 280.051 192.041 280.051 191.933V186.308C280.051 186.2 280.084 186.113 280.15 186.047C280.222 185.981 280.315 185.948 280.429 185.948H283.795C283.903 185.948 283.987 185.975 284.047 186.029C284.107 186.083 284.137 186.158 284.137 186.254C284.137 186.35 284.107 186.425 284.047 186.479C283.987 186.533 283.903 186.56 283.795 186.56H280.78V188.765H283.615C283.723 188.765 283.807 188.792 283.867 188.846C283.927 188.9 283.957 188.975 283.957 189.071C283.957 189.167 283.927 189.242 283.867 189.296C283.807 189.35 283.723 189.377 283.615 189.377H280.78V191.681H283.795C283.903 191.681 283.987 191.708 284.047 191.762C284.107 191.81 284.137 191.885 284.137 191.987C284.137 192.083 284.107 192.158 284.047 192.212C283.987 192.266 283.903 192.293 283.795 192.293H280.429ZM287.449 188.315C287.851 188.315 288.202 188.399 288.502 188.567C288.808 188.735 289.042 188.972 289.204 189.278C289.372 189.578 289.456 189.926 289.456 190.322C289.456 190.718 289.366 191.072 289.186 191.384C289.006 191.69 288.754 191.93 288.43 192.104C288.112 192.272 287.743 192.356 287.323 192.356C286.951 192.356 286.588 192.29 286.234 192.158C285.88 192.026 285.58 191.846 285.334 191.618C285.238 191.528 285.19 191.426 285.19 191.312C285.19 191.222 285.214 191.147 285.262 191.087C285.31 191.027 285.367 190.997 285.433 190.997C285.517 190.997 285.601 191.03 285.685 191.096C285.949 191.312 286.213 191.474 286.477 191.582C286.741 191.684 287.017 191.735 287.305 191.735C287.749 191.735 288.097 191.609 288.349 191.357C288.601 191.105 288.727 190.763 288.727 190.331C288.727 189.911 288.601 189.572 288.349 189.314C288.097 189.056 287.758 188.927 287.332 188.927C286.786 188.927 286.342 189.137 286 189.557C285.916 189.647 285.814 189.692 285.694 189.692C285.61 189.692 285.538 189.668 285.478 189.62C285.424 189.566 285.397 189.494 285.397 189.404V186.299C285.397 186.197 285.427 186.113 285.487 186.047C285.553 185.981 285.643 185.948 285.757 185.948H288.925C289.033 185.948 289.117 185.975 289.177 186.029C289.243 186.083 289.276 186.158 289.276 186.254C289.276 186.35 289.243 186.425 289.177 186.479C289.117 186.533 289.033 186.56 288.925 186.56H286.126V188.819C286.294 188.657 286.489 188.534 286.711 188.45C286.939 188.36 287.185 188.315 287.449 188.315ZM292.846 188.315C293.248 188.315 293.599 188.399 293.899 188.567C294.205 188.735 294.439 188.972 294.601 189.278C294.769 189.578 294.853 189.926 294.853 190.322C294.853 190.718 294.763 191.072 294.583 191.384C294.403 191.69 294.151 191.93 293.827 192.104C293.509 192.272 293.14 192.356 292.72 192.356C292.348 192.356 291.985 192.29 291.631 192.158C291.277 192.026 290.977 191.846 290.731 191.618C290.635 191.528 290.587 191.426 290.587 191.312C290.587 191.222 290.611 191.147 290.659 191.087C290.707 191.027 290.764 190.997 290.83 190.997C290.914 190.997 290.998 191.03 291.082 191.096C291.346 191.312 291.61 191.474 291.874 191.582C292.138 191.684 292.414 191.735 292.702 191.735C293.146 191.735 293.494 191.609 293.746 191.357C293.998 191.105 294.124 190.763 294.124 190.331C294.124 189.911 293.998 189.572 293.746 189.314C293.494 189.056 293.155 188.927 292.729 188.927C292.183 188.927 291.739 189.137 291.397 189.557C291.313 189.647 291.211 189.692 291.091 189.692C291.007 189.692 290.935 189.668 290.875 189.62C290.821 189.566 290.794 189.494 290.794 189.404V186.299C290.794 186.197 290.824 186.113 290.884 186.047C290.95 185.981 291.04 185.948 291.154 185.948H294.322C294.43 185.948 294.514 185.975 294.574 186.029C294.64 186.083 294.673 186.158 294.673 186.254C294.673 186.35 294.64 186.425 294.574 186.479C294.514 186.533 294.43 186.56 294.322 186.56H291.523V188.819C291.691 188.657 291.886 188.534 292.108 188.45C292.336 188.36 292.582 188.315 292.846 188.315ZM298.845 189.035C299.229 189.143 299.52 189.329 299.718 189.593C299.922 189.857 300.024 190.184 300.024 190.574C300.024 191.126 299.838 191.561 299.466 191.879C299.094 192.197 298.587 192.356 297.945 192.356C297.555 192.356 297.18 192.29 296.82 192.158C296.466 192.026 296.166 191.846 295.92 191.618C295.824 191.528 295.776 191.426 295.776 191.312C295.776 191.222 295.8 191.147 295.848 191.087C295.896 191.027 295.953 190.997 296.019 190.997C296.103 190.997 296.187 191.03 296.271 191.096C296.547 191.318 296.817 191.48 297.081 191.582C297.345 191.684 297.63 191.735 297.936 191.735C298.38 191.735 298.716 191.633 298.944 191.429C299.178 191.225 299.295 190.931 299.295 190.547C299.295 189.773 298.809 189.386 297.837 189.386H297.36C297.264 189.386 297.186 189.356 297.126 189.296C297.072 189.23 297.045 189.155 297.045 189.071C297.045 188.987 297.072 188.915 297.126 188.855C297.186 188.795 297.264 188.765 297.36 188.765H297.693C298.161 188.765 298.521 188.663 298.773 188.459C299.025 188.249 299.151 187.949 299.151 187.559C299.151 187.217 299.049 186.956 298.845 186.776C298.641 186.59 298.353 186.497 297.981 186.497C297.699 186.497 297.426 186.551 297.162 186.659C296.898 186.761 296.634 186.92 296.37 187.136C296.286 187.202 296.202 187.235 296.118 187.235C296.052 187.235 295.995 187.205 295.947 187.145C295.899 187.085 295.875 187.01 295.875 186.92C295.875 186.806 295.923 186.704 296.019 186.614C296.265 186.386 296.562 186.206 296.91 186.074C297.264 185.942 297.627 185.876 297.999 185.876C298.575 185.876 299.031 186.023 299.367 186.317C299.709 186.605 299.88 186.995 299.88 187.487C299.88 187.853 299.787 188.174 299.601 188.45C299.421 188.72 299.169 188.915 298.845 189.035ZM303.639 188.315C304.041 188.315 304.392 188.399 304.692 188.567C304.998 188.735 305.232 188.972 305.394 189.278C305.562 189.578 305.646 189.926 305.646 190.322C305.646 190.718 305.556 191.072 305.376 191.384C305.196 191.69 304.944 191.93 304.62 192.104C304.302 192.272 303.933 192.356 303.513 192.356C303.141 192.356 302.778 192.29 302.424 192.158C302.07 192.026 301.77 191.846 301.524 191.618C301.428 191.528 301.38 191.426 301.38 191.312C301.38 191.222 301.404 191.147 301.452 191.087C301.5 191.027 301.557 190.997 301.623 190.997C301.707 190.997 301.791 191.03 301.875 191.096C302.139 191.312 302.403 191.474 302.667 191.582C302.931 191.684 303.207 191.735 303.495 191.735C303.939 191.735 304.287 191.609 304.539 191.357C304.791 191.105 304.917 190.763 304.917 190.331C304.917 189.911 304.791 189.572 304.539 189.314C304.287 189.056 303.948 188.927 303.522 188.927C302.976 188.927 302.532 189.137 302.19 189.557C302.106 189.647 302.004 189.692 301.884 189.692C301.8 189.692 301.728 189.668 301.668 189.62C301.614 189.566 301.587 189.494 301.587 189.404V186.299C301.587 186.197 301.617 186.113 301.677 186.047C301.743 185.981 301.833 185.948 301.947 185.948H305.115C305.223 185.948 305.307 185.975 305.367 186.029C305.433 186.083 305.466 186.158 305.466 186.254C305.466 186.35 305.433 186.425 305.367 186.479C305.307 186.533 305.223 186.56 305.115 186.56H302.316V188.819C302.484 188.657 302.679 188.534 302.901 188.45C303.129 188.36 303.375 188.315 303.639 188.315Z" fill="#BE5535"/>
<path id="#A3A3FE" d="M399.019 188.045L398.614 190.124H399.496C399.574 190.124 399.64 190.151 399.694 190.205C399.754 190.259 399.784 190.325 399.784 190.403C399.784 190.475 399.757 190.535 399.703 190.583C399.649 190.631 399.58 190.655 399.496 190.655H398.515L398.227 192.122C398.215 192.188 398.182 192.242 398.128 192.284C398.08 192.32 398.023 192.338 397.957 192.338C397.873 192.338 397.804 192.311 397.75 192.257C397.696 192.203 397.669 192.137 397.669 192.059C397.669 192.023 397.672 191.996 397.678 191.978L397.939 190.655H396.499L396.211 192.122C396.205 192.182 396.175 192.233 396.121 192.275C396.073 192.317 396.016 192.338 395.95 192.338C395.872 192.338 395.806 192.311 395.752 192.257C395.698 192.203 395.671 192.137 395.671 192.059C395.671 192.023 395.674 191.996 395.68 191.978L395.941 190.655H395.338C395.254 190.655 395.185 190.628 395.131 190.574C395.077 190.52 395.05 190.454 395.05 190.376C395.05 190.304 395.077 190.244 395.131 190.196C395.185 190.148 395.254 190.124 395.338 190.124H396.04L396.445 188.045H395.518C395.44 188.045 395.371 188.018 395.311 187.964C395.257 187.91 395.23 187.844 395.23 187.766C395.23 187.694 395.257 187.634 395.311 187.586C395.365 187.538 395.434 187.514 395.518 187.514H396.544L396.823 186.092C396.835 186.026 396.865 185.975 396.913 185.939C396.967 185.897 397.027 185.876 397.093 185.876C397.177 185.876 397.243 185.903 397.291 185.957C397.345 186.005 397.372 186.071 397.372 186.155C397.372 186.191 397.369 186.218 397.363 186.236L397.111 187.514H398.551L398.83 186.092C398.836 186.032 398.866 185.981 398.92 185.939C398.974 185.897 399.034 185.876 399.1 185.876C399.184 185.876 399.25 185.903 399.298 185.957C399.352 186.005 399.379 186.071 399.379 186.155C399.379 186.191 399.376 186.218 399.37 186.236L399.118 187.514H399.676C399.76 187.514 399.829 187.541 399.883 187.595C399.937 187.649 399.964 187.715 399.964 187.793C399.964 187.865 399.937 187.925 399.883 187.973C399.829 188.021 399.76 188.045 399.676 188.045H399.019ZM398.452 188.045H397.012L396.598 190.124H398.038L398.452 188.045ZM406.449 191.87C406.473 191.918 406.485 191.969 406.485 192.023C406.485 192.113 406.449 192.188 406.377 192.248C406.311 192.308 406.23 192.338 406.134 192.338C405.984 192.338 405.879 192.266 405.819 192.122L405.18 190.664H401.787L401.139 192.122C401.079 192.266 400.974 192.338 400.824 192.338C400.728 192.338 400.644 192.308 400.572 192.248C400.5 192.182 400.464 192.104 400.464 192.014C400.464 191.966 400.476 191.918 400.5 191.87L403.074 186.146C403.11 186.062 403.164 185.999 403.236 185.957C403.308 185.915 403.386 185.894 403.47 185.894C403.56 185.894 403.641 185.918 403.713 185.966C403.785 186.008 403.839 186.068 403.875 186.146L406.449 191.87ZM404.91 190.052L403.479 186.821L402.057 190.052H404.91ZM410.289 189.035C410.673 189.143 410.964 189.329 411.162 189.593C411.366 189.857 411.468 190.184 411.468 190.574C411.468 191.126 411.282 191.561 410.91 191.879C410.538 192.197 410.031 192.356 409.389 192.356C408.999 192.356 408.624 192.29 408.264 192.158C407.91 192.026 407.61 191.846 407.364 191.618C407.268 191.528 407.22 191.426 407.22 191.312C407.22 191.222 407.244 191.147 407.292 191.087C407.34 191.027 407.397 190.997 407.463 190.997C407.547 190.997 407.631 191.03 407.715 191.096C407.991 191.318 408.261 191.48 408.525 191.582C408.789 191.684 409.074 191.735 409.38 191.735C409.824 191.735 410.16 191.633 410.388 191.429C410.622 191.225 410.739 190.931 410.739 190.547C410.739 189.773 410.253 189.386 409.281 189.386H408.804C408.708 189.386 408.63 189.356 408.57 189.296C408.516 189.23 408.489 189.155 408.489 189.071C408.489 188.987 408.516 188.915 408.57 188.855C408.63 188.795 408.708 188.765 408.804 188.765H409.137C409.605 188.765 409.965 188.663 410.217 188.459C410.469 188.249 410.595 187.949 410.595 187.559C410.595 187.217 410.493 186.956 410.289 186.776C410.085 186.59 409.797 186.497 409.425 186.497C409.143 186.497 408.87 186.551 408.606 186.659C408.342 186.761 408.078 186.92 407.814 187.136C407.73 187.202 407.646 187.235 407.562 187.235C407.496 187.235 407.439 187.205 407.391 187.145C407.343 187.085 407.319 187.01 407.319 186.92C407.319 186.806 407.367 186.704 407.463 186.614C407.709 186.386 408.006 186.206 408.354 186.074C408.708 185.942 409.071 185.876 409.443 185.876C410.019 185.876 410.475 186.023 410.811 186.317C411.153 186.605 411.324 186.995 411.324 187.487C411.324 187.853 411.231 188.174 411.045 188.45C410.865 188.72 410.613 188.915 410.289 189.035ZM418.385 191.87C418.409 191.918 418.421 191.969 418.421 192.023C418.421 192.113 418.385 192.188 418.313 192.248C418.247 192.308 418.166 192.338 418.07 192.338C417.92 192.338 417.815 192.266 417.755 192.122L417.116 190.664H413.723L413.075 192.122C413.015 192.266 412.91 192.338 412.76 192.338C412.664 192.338 412.58 192.308 412.508 192.248C412.436 192.182 412.4 192.104 412.4 192.014C412.4 191.966 412.412 191.918 412.436 191.87L415.01 186.146C415.046 186.062 415.1 185.999 415.172 185.957C415.244 185.915 415.322 185.894 415.406 185.894C415.496 185.894 415.577 185.918 415.649 185.966C415.721 186.008 415.775 186.068 415.811 186.146L418.385 191.87ZM416.846 190.052L415.415 186.821L413.993 190.052H416.846ZM422.224 189.035C422.608 189.143 422.899 189.329 423.097 189.593C423.301 189.857 423.403 190.184 423.403 190.574C423.403 191.126 423.217 191.561 422.845 191.879C422.473 192.197 421.966 192.356 421.324 192.356C420.934 192.356 420.559 192.29 420.199 192.158C419.845 192.026 419.545 191.846 419.299 191.618C419.203 191.528 419.155 191.426 419.155 191.312C419.155 191.222 419.179 191.147 419.227 191.087C419.275 191.027 419.332 190.997 419.398 190.997C419.482 190.997 419.566 191.03 419.65 191.096C419.926 191.318 420.196 191.48 420.46 191.582C420.724 191.684 421.009 191.735 421.315 191.735C421.759 191.735 422.095 191.633 422.323 191.429C422.557 191.225 422.674 190.931 422.674 190.547C422.674 189.773 422.188 189.386 421.216 189.386H420.739C420.643 189.386 420.565 189.356 420.505 189.296C420.451 189.23 420.424 189.155 420.424 189.071C420.424 188.987 420.451 188.915 420.505 188.855C420.565 188.795 420.643 188.765 420.739 188.765H421.072C421.54 188.765 421.9 188.663 422.152 188.459C422.404 188.249 422.53 187.949 422.53 187.559C422.53 187.217 422.428 186.956 422.224 186.776C422.02 186.59 421.732 186.497 421.36 186.497C421.078 186.497 420.805 186.551 420.541 186.659C420.277 186.761 420.013 186.92 419.749 187.136C419.665 187.202 419.581 187.235 419.497 187.235C419.431 187.235 419.374 187.205 419.326 187.145C419.278 187.085 419.254 187.01 419.254 186.92C419.254 186.806 419.302 186.704 419.398 186.614C419.644 186.386 419.941 186.206 420.289 186.074C420.643 185.942 421.006 185.876 421.378 185.876C421.954 185.876 422.41 186.023 422.746 186.317C423.088 186.605 423.259 186.995 423.259 187.487C423.259 187.853 423.166 188.174 422.98 188.45C422.8 188.72 422.548 188.915 422.224 189.035ZM425.227 192.338C425.113 192.338 425.023 192.305 424.957 192.239C424.891 192.167 424.858 192.074 424.858 191.96V186.308C424.858 186.2 424.891 186.113 424.957 186.047C425.029 185.981 425.122 185.948 425.236 185.948H428.512C428.62 185.948 428.704 185.975 428.764 186.029C428.824 186.083 428.854 186.161 428.854 186.263C428.854 186.359 428.824 186.434 428.764 186.488C428.704 186.542 428.62 186.569 428.512 186.569H425.587V188.756H428.332C428.44 188.756 428.524 188.783 428.584 188.837C428.644 188.891 428.674 188.969 428.674 189.071C428.674 189.167 428.644 189.242 428.584 189.296C428.524 189.35 428.44 189.377 428.332 189.377H425.587V191.96C425.587 192.074 425.554 192.167 425.488 192.239C425.428 192.305 425.341 192.338 425.227 192.338ZM430.245 192.293C430.131 192.293 430.038 192.26 429.966 192.194C429.9 192.128 429.867 192.041 429.867 191.933V186.308C429.867 186.2 429.9 186.113 429.966 186.047C430.038 185.981 430.131 185.948 430.245 185.948H433.611C433.719 185.948 433.803 185.975 433.863 186.029C433.923 186.083 433.953 186.158 433.953 186.254C433.953 186.35 433.923 186.425 433.863 186.479C433.803 186.533 433.719 186.56 433.611 186.56H430.596V188.765H433.431C433.539 188.765 433.623 188.792 433.683 188.846C433.743 188.9 433.773 188.975 433.773 189.071C433.773 189.167 433.743 189.242 433.683 189.296C433.623 189.35 433.539 189.377 433.431 189.377H430.596V191.681H433.611C433.719 191.681 433.803 191.708 433.863 191.762C433.923 191.81 433.953 191.885 433.953 191.987C433.953 192.083 433.923 192.158 433.863 192.212C433.803 192.266 433.719 192.293 433.611 192.293H430.245Z" fill="#132F5D"/>
<path id="wave-right" d="M289.926 555.157C413.704 555.157 514.045 534.821 514.045 509.735C514.045 484.649 413.704 464.313 289.926 464.313C166.148 464.313 65.807 484.649 65.807 509.735C65.807 534.821 166.148 555.157 289.926 555.157Z" fill="#8BB6E2"/>
<path id="wave-left" d="M466.223 542.095C606.59 542.095 720.379 522.782 720.379 498.959C720.379 475.136 606.59 455.823 466.223 455.823C325.857 455.823 212.067 475.136 212.067 498.959C212.067 522.782 325.857 542.095 466.223 542.095Z" fill="#3B93EC"/>
<path id="Vector_9" d="M346.499 374.043V477.701L275.899 489.536L198.767 480.151V376.084L275.898 369.146L346.499 374.043Z" fill="#3F3D56"/>
<path id="Vector_10" opacity="0.1" d="M275.898 379.757V489.536L198.767 480.149V376.089L275.898 379.757Z" fill="black"/>
<path id="Vector_11" opacity="0.1" d="M346.499 351.267L275.899 356.98L198.767 353.308L275.898 346.37L346.499 351.267Z" fill="white"/>
<path id="Vector_12" d="M555.346 445.461V484.23L505.966 495.249L406.797 487.087V452.399L408.421 452.126L408.572 452.101L494.131 437.712L554.297 445.331L555.346 445.461Z" fill="#D0CDE1"/>
<path id="Vector_13" opacity="0.1" d="M487.235 458.112V495.249L388.067 487.087V452.4L389.691 452.127L487.235 458.112Z" fill="black"/>
<path id="Vector_14" opacity="0.1" d="M554.296 435.878L505.965 448.664L408.572 442.653L494.13 428.264L554.296 435.878Z" fill="white"/>
<path id="Vector_15" d="M344.727 413.221V492.801C362.397 497.334 380.926 497.334 398.596 492.801V413.221H344.727Z" fill="#3C608A"/>
<path id="Vector_16" d="M371.662 399.372C386.538 399.372 398.597 398.002 398.597 396.311C398.597 394.62 386.538 393.25 371.662 393.25C356.786 393.25 344.727 394.62 344.727 396.311C344.727 398.002 356.786 399.372 371.662 399.372Z" fill="#6C63FF"/>
<path id="Vector_17" opacity="0.1" d="M371.662 399.372C386.538 399.372 398.597 398.002 398.597 396.311C398.597 394.62 386.538 393.25 371.662 393.25C356.786 393.25 344.727 394.62 344.727 396.311C344.727 398.002 356.786 399.372 371.662 399.372Z" fill="#6C63FF"/>
<path id="Vector_18" d="M403.014 268.608C403.379 269.458 403.765 270.318 404.161 271.162L403.312 271.562C402.912 270.708 402.521 269.839 402.152 268.98L403.014 268.608Z" fill="#E6E6E6"/>
<path id="Vector_19" d="M597.961 212.312C598.567 213.603 599.149 214.919 599.691 216.223L598.711 216.63C597.899 214.678 597.002 212.71 596.055 210.807L597.005 210.335C597.332 210.988 597.65 211.647 597.961 212.312ZM593.928 204.64L593.012 205.176C591.936 203.339 590.786 201.519 589.593 199.767L590.47 199.167C591.677 200.942 592.844 202.782 593.928 204.64ZM601.973 222.278C602.663 224.317 603.289 226.402 603.836 228.478L602.81 228.748C602.27 226.698 601.65 224.637 600.968 222.621L601.973 222.278ZM586.644 193.95L585.809 194.606C584.496 192.937 583.109 191.292 581.681 189.717L582.467 189.005C583.91 190.598 585.315 192.261 586.644 193.95ZM605.266 234.787C605.666 236.896 606.003 239.048 606.259 241.187L605.206 241.314C604.952 239.203 604.622 237.076 604.223 234.99L605.266 234.787ZM577.962 184.361L577.227 185.126C575.696 183.654 574.095 182.218 572.47 180.856L573.152 180.043C574.794 181.42 576.413 182.872 577.962 184.361ZM606.812 247.641C606.92 249.792 606.955 251.972 606.912 254.12L605.851 254.1C605.891 251.976 605.857 249.821 605.751 247.694L606.812 247.641ZM568.052 176.065L567.428 176.923C565.709 175.675 563.928 174.47 562.128 173.344L562.691 172.444C564.511 173.584 566.314 174.802 568.052 176.065ZM606.57 260.589C606.382 262.734 606.118 264.896 605.784 267.018L604.736 266.853C605.066 264.753 605.327 262.617 605.513 260.496L606.57 260.589ZM557.095 169.2L556.595 170.136C554.722 169.136 552.795 168.183 550.854 167.311L551.289 166.343C553.244 167.225 555.201 168.186 557.095 169.2ZM604.56 273.377C604.082 275.471 603.526 277.577 602.906 279.636L601.891 279.331C602.504 277.295 603.054 275.213 603.527 273.142L604.56 273.377ZM545.301 163.888L544.932 164.883C542.939 164.145 540.896 163.465 538.858 162.864L539.158 161.846C541.22 162.454 543.286 163.141 545.301 163.888ZM600.83 285.767C600.071 287.779 599.23 289.789 598.341 291.742L597.376 291.301C598.259 289.37 599.087 287.382 599.837 285.393L600.83 285.767ZM532.889 160.231L532.658 161.266C530.586 160.805 528.468 160.41 526.365 160.092L526.524 159.043C528.651 159.361 530.793 159.761 532.889 160.231ZM595.452 297.531C594.427 299.42 593.325 301.297 592.175 303.109L591.275 302.541C592.412 300.749 593.503 298.893 594.516 297.025L595.452 297.531ZM520.09 158.29L520.004 159.347C517.884 159.173 515.731 159.071 513.604 159.047L513.618 157.986C515.769 158.011 517.944 158.114 520.09 158.29ZM588.524 308.449C587.252 310.179 585.904 311.887 584.517 313.524L583.707 312.838C585.078 311.219 586.407 309.53 587.669 307.82L588.524 308.449ZM507.144 158.123L507.204 159.182C505.08 159.302 502.932 159.497 500.821 159.762L500.689 158.709C502.821 158.441 504.993 158.243 507.144 158.123ZM580.173 318.311C578.673 319.852 577.103 321.36 575.503 322.793L574.795 322.002C576.377 320.586 577.93 319.095 579.412 317.572L580.173 318.311ZM494.295 159.74L494.5 160.782C492.415 161.192 490.318 161.682 488.268 162.233L487.992 161.209C490.065 160.65 492.186 160.156 494.295 159.74ZM570.535 326.94C568.835 328.259 567.076 329.54 565.293 330.74L564.701 329.859C566.464 328.673 568.208 327.411 569.884 326.106L570.535 326.94ZM481.805 163.106L482.15 164.106C480.144 164.797 478.134 165.568 476.175 166.396L475.762 165.419C477.744 164.584 479.776 163.805 481.805 163.106ZM559.805 334.161C557.947 335.234 556.026 336.261 554.095 337.206L553.628 336.253C555.539 335.316 557.438 334.303 559.275 333.242L559.805 334.161ZM470.368 169.09C468.468 170.048 466.58 171.082 464.755 172.163L464.214 171.25C466.06 170.156 467.969 169.11 469.89 168.141L470.368 169.09ZM459.368 175.612C457.617 176.82 455.887 178.102 454.228 179.424L453.567 178.594C455.245 177.258 456.994 175.961 458.767 174.739L459.368 175.612ZM449.368 183.581C447.803 185.015 446.268 186.521 444.806 188.058L444.03 187.331C445.509 185.776 447.061 184.253 448.644 182.803L449.368 183.581ZM440.568 192.841C439.213 194.478 437.899 196.183 436.663 197.905L435.801 197.286C437.052 195.543 438.381 193.82 439.751 192.164L440.568 192.841ZM433.1 203.231C431.981 205.04 430.912 206.909 429.922 208.783L428.984 208.288C429.984 206.388 431.066 204.502 432.198 202.672L433.1 203.231ZM427.129 214.542C426.268 216.484 425.462 218.48 424.734 220.477L423.734 220.114C424.47 218.095 425.284 216.075 426.155 214.114L427.129 214.542ZM422.75 226.562C422.16 228.606 421.633 230.695 421.184 232.77L420.147 232.546C420.601 230.446 421.134 228.335 421.73 226.268L422.75 226.562ZM420.044 239.065C419.738 241.172 419.501 243.313 419.344 245.43L418.286 245.35C418.449 243.209 418.686 241.044 418.999 238.913L420.044 239.065ZM419.073 251.829C419.057 253.957 419.116 256.111 419.248 258.229L418.189 258.294C418.056 256.149 417.997 253.97 418.012 251.818L419.073 251.829ZM419.864 264.609C420.142 266.715 420.496 268.839 420.918 270.921L419.878 271.132C419.451 269.026 419.092 266.878 418.811 264.748L419.864 264.609ZM422.406 277.145C422.97 279.191 423.613 281.245 424.317 283.252L423.317 283.603C422.605 281.574 421.955 279.496 421.384 277.427L422.406 277.145Z" fill="#E6E6E6" stroke="#707070"/>
<path id="Vector_20" d="M535.376 319.944L535.73 320.813C534.853 321.171 533.965 321.513 533.091 321.837L532.767 320.957C533.63 320.639 534.508 320.298 535.376 319.944Z" fill="#E6E6E6"/>
<path id="Vector_21" d="M364.449 356.847C370.083 356.847 374.651 352.279 374.651 346.645C374.651 341.011 370.083 336.443 364.449 336.443C358.815 336.443 354.247 341.011 354.247 346.645C354.247 352.279 358.815 356.847 364.449 356.847Z" fill="#FDBA9F"/>
<path id="Vector_22" d="M390.079 363.378C392.198 363.378 393.915 361.661 393.915 359.542C393.915 357.423 392.198 355.706 390.079 355.706C387.96 355.706 386.243 357.423 386.243 359.542C386.243 361.661 387.96 363.378 390.079 363.378Z" fill="#B33404"/>
<path id="Vector_23" d="M381.263 334.32C385.004 334.32 388.037 331.287 388.037 327.546C388.037 323.805 385.004 320.772 381.263 320.772C377.522 320.772 374.489 323.805 374.489 327.546C374.489 331.287 377.522 334.32 381.263 334.32Z" fill="#D87453"/>
<path id="Vector_24" d="M206.063 389.852H222.919C224.07 383.201 224.07 376.403 222.919 369.752H206.063C207.962 376.317 207.962 383.287 206.063 389.852Z" fill="#2D4D78"/>
<path id="Vector_25" d="M246.156 414.888H229.3C228.149 408.237 228.149 401.439 229.3 394.788H246.156C244.257 401.353 244.257 408.323 246.156 414.888Z" fill="#FDBA9F"/>
<path id="Vector_26" d="M246.877 453.38H263.733C264.883 446.729 264.883 439.931 263.733 433.28H246.877C248.776 439.845 248.776 446.815 246.877 453.38Z" fill="#B8DCFB"/>
<path id="Vector_27" d="M298.089 343.198C302.535 336.589 304.466 328.605 303.53 320.695C302.595 312.784 298.856 305.471 292.991 300.081C287.126 294.691 279.524 291.581 271.563 291.315C263.602 291.05 255.809 293.646 249.598 298.633C243.387 303.62 239.168 310.668 237.708 318.498C236.247 326.328 237.641 334.423 241.636 341.314C245.632 348.205 251.965 353.436 259.486 356.058C267.008 358.68 275.22 358.52 282.634 355.607C283.115 357.323 284.013 358.892 285.249 360.176C286.485 361.459 288.02 362.416 289.717 362.96C291.413 363.505 293.218 363.62 294.97 363.296C296.722 362.972 298.366 362.218 299.756 361.103C301.145 359.987 302.236 358.545 302.931 356.904C303.626 355.263 303.903 353.476 303.738 351.702C303.573 349.928 302.971 348.223 301.985 346.739C300.999 345.254 299.66 344.038 298.089 343.198Z" fill="#B8DCFB"/>
<path id="Vector_28" d="M299.29 311.887H241.938V316.415H299.29V311.887Z" fill="white"/>
<path id="Vector_29" d="M299.29 320.72H241.938V325.248H299.29V320.72Z" fill="white"/>
<path id="Vector_30" d="M299.29 329.554H241.938V334.082H299.29V329.554Z" fill="white"/>
<path id="Vector_31" d="M537.857 430.048C537.763 429.895 535.557 426.208 534.789 418.548C534.089 411.523 534.538 399.683 540.679 383.166C552.312 351.877 537.998 326.631 537.852 326.379L538.558 325.969C541.314 331.243 543.305 336.883 544.471 342.719C547.354 356.308 546.304 370.437 541.445 383.45C529.832 414.686 538.466 429.473 538.554 429.619L537.857 430.048Z" fill="#072C01"/>
<path id="Vector_32" d="M377.899 389.852C376.289 388.373 375.211 386.405 374.831 384.252C374.131 380.831 374.58 375.065 380.721 367.021C392.354 351.783 378.04 339.488 377.894 339.366L378.6 339.166C381.111 341.449 383.124 344.225 384.513 347.321C387.396 353.939 386.346 360.821 381.487 367.157C369.874 382.369 378.508 389.57 378.596 389.641L377.899 389.852Z" fill="#072C01"/>
<path id="Vector_33" d="M533.308 310.991C536.238 310.991 538.613 308.616 538.613 305.686C538.613 302.756 536.238 300.381 533.308 300.381C530.378 300.381 528.003 302.756 528.003 305.686C528.003 308.616 530.378 310.991 533.308 310.991Z" fill="#D5AA94"/>
<path id="Vector_34" d="M550.04 333.986C552.97 333.986 555.345 331.611 555.345 328.681C555.345 325.751 552.97 323.376 550.04 323.376C547.11 323.376 544.735 325.751 544.735 328.681C544.735 331.611 547.11 333.986 550.04 333.986Z" fill="#4976AF"/>
<path id="Vector_35" d="M538.613 349.316C541.543 349.316 543.918 346.941 543.918 344.011C543.918 341.081 541.543 338.706 538.613 338.706C535.683 338.706 533.308 341.081 533.308 344.011C533.308 346.941 535.683 349.316 538.613 349.316Z" fill="#6C63FF"/>
<path id="Vector_36" d="M552.489 362.25C555.419 362.25 557.794 359.875 557.794 356.945C557.794 354.015 555.419 351.64 552.489 351.64C549.559 351.64 547.184 354.015 547.184 356.945C547.184 359.875 549.559 362.25 552.489 362.25Z" fill="#BE5535"/>
<path id="Vector_37" d="M534.532 382.371C537.462 382.371 539.837 379.996 539.837 377.066C539.837 374.136 537.462 371.761 534.532 371.761C531.602 371.761 529.227 374.136 529.227 377.066C529.227 379.996 531.602 382.371 534.532 382.371Z" fill="#B33404"/>
<path id="Vector_38" d="M541.062 434.609C541.062 434.609 535.757 421.55 551.673 411.755L541.062 434.609Z" fill="#59FF31"/>
<path id="Vector_39" d="M379.466 389.843C379.466 389.843 374.16 381.981 390.079 376.084L379.466 389.843Z" fill="#59FF31"/>
<path id="Vector_40" d="M363.028 380.632C363.028 380.632 370.599 374.922 377.324 390.51L363.028 380.632Z" fill="#59FF31"/>
<path id="Vector_41" d="M524.717 434.677C524.717 434.677 522.303 420.79 503.617 420.909L524.717 434.677Z" fill="#3F3D56"/>
<path id="Vector_42" d="M489.336 233.576C499.176 233.576 507.152 225.6 507.152 215.76C507.152 205.921 499.176 197.944 489.336 197.944C479.497 197.944 471.52 205.921 471.52 215.76C471.52 225.6 479.497 233.576 489.336 233.576Z" fill="#2F2E41"/>
<path id="Vector_43" d="M458.462 261.668L453.495 272.926L448.195 257.033C448.195 257.033 447.533 243.126 442.895 243.788C438.257 244.45 442.233 257.695 442.233 257.695C442.233 257.695 445.213 287.164 451.833 285.509C458.453 283.854 462.768 274.25 462.768 274.25L463.927 264.098L458.462 261.668Z" fill="#A0616A"/>
<path id="Vector_44" d="M481.541 233.107C481.541 233.107 483.528 244.034 479.223 246.352C474.918 248.67 495.779 248.008 496.11 244.365C496.11 244.365 491.474 233.107 491.474 230.458L481.541 233.107Z" fill="#A0616A"/>
<path id="Vector_45" d="M445.743 345.46C445.743 345.46 447.398 364.334 448.061 368.307C448.499 371.6 448.72 374.918 448.723 378.24C447.733 386.589 447.401 395.004 447.73 403.405L448.723 413.67H456.338L456.629 412.304L459.65 398.104C459.65 398.104 462.961 386.515 461.637 377.904L465.279 350.09L445.743 345.46Z" fill="#A0616A"/>
<path id="Vector_46" d="M474.589 352.046C474.589 352.046 482.536 376.88 484.522 379.529C486.297 382.269 487.847 385.148 489.158 388.138C489.158 388.138 494.787 402.045 497.767 404.363L501.078 410.323L506.707 408.667L505.051 395.422C504.282 387.992 501.538 380.904 497.104 374.893L493.462 352.708L474.589 352.046Z" fill="#A0616A"/>
<path id="Vector_47" d="M494.806 247.625C494.806 247.625 485.006 250.187 481.295 249.072C479.615 248.998 477.931 249.068 476.263 249.281C474.939 249.612 466.663 252.592 466.663 253.254C466.663 253.916 468.319 260.539 468.319 260.539C467.777 262.702 467.554 264.933 467.657 267.161C467.988 269.81 461.697 278.088 465.008 278.75C468.319 279.412 470.308 278.088 471.961 279.412C473.614 280.736 493.484 286.696 493.484 286.696L510.04 253.916C510.04 253.916 507.391 248.287 505.073 248.287C502.755 248.287 496.573 246.593 496.573 246.593L494.806 247.625Z" fill="#3F3D56"/>
<path id="Vector_48" d="M463.427 253.133L461.771 252.471C461.771 252.471 455.811 261.742 457.798 262.736C459.785 263.73 464.751 266.047 464.751 266.047L463.427 253.133Z" fill="#3F3D56"/>
<path id="Vector_49" d="M464.906 285.119L459.606 293.728C459.606 293.728 451.328 295.052 450.666 306.31C450.666 306.31 445.037 308.297 443.713 318.561C443.713 318.561 435.435 323.861 439.739 329.819C444.043 335.777 467.222 347.699 491.724 343.726C491.724 343.726 496.36 334.455 493.048 328.164C493.048 328.164 496.6 321.484 490.519 316.877C491.99 314.857 492.772 312.417 492.751 309.918C492.729 307.419 491.905 304.994 490.399 302.999L490.73 292.399L464.906 285.119Z" fill="#F19573"/>
<path id="Vector_50" d="M456.246 419.42H446.974C446.974 419.42 446.643 427.698 443.001 429.685C439.359 431.672 432.401 442.267 437.701 443.592C443.001 444.917 458.561 434.983 458.561 432.665C458.561 430.347 456.246 419.42 456.246 419.42Z" fill="#BE5535"/>
<path id="Vector_51" d="M509.598 413.364L501.651 416.344C501.651 416.344 507.611 432.569 507.611 434.887C507.611 437.205 508.604 439.854 514.564 438.86C520.524 437.866 519.531 433.231 519.531 433.231L509.598 413.364Z" fill="#BE5535"/>
<path id="Vector_52" d="M484.57 233.572C490.239 233.572 494.835 228.976 494.835 223.307C494.835 217.638 490.239 213.042 484.57 213.042C478.901 213.042 474.305 217.638 474.305 223.307C474.305 228.976 478.901 233.572 484.57 233.572Z" fill="#A0616A"/>
<path id="Vector_53" d="M509.388 270.235C509.388 270.235 504.752 286.791 504.088 288.115L493.161 316.26C493.161 316.26 494.486 330.498 489.519 328.18C484.552 325.862 489.188 313.611 489.188 313.611L496.804 283.479L501.111 270.235H509.388Z" fill="#A0616A"/>
<path id="Vector_54" d="M507.504 250.684L511.477 253.333C511.477 253.333 514.788 266.247 511.477 265.915C508.166 265.583 500.55 267.571 500.219 266.908C499.888 266.245 507.504 250.684 507.504 250.684Z" fill="#3F3D56"/>
<path id="Vector_55" d="M494.857 194.123C498.928 194.123 502.229 190.823 502.229 186.751C502.229 182.68 498.928 179.379 494.857 179.379C490.786 179.379 487.485 182.68 487.485 186.751C487.485 190.823 490.786 194.123 494.857 194.123Z" fill="#2F2E41"/>
<path id="Vector_56" d="M483.617 182.758C483.617 180.937 484.292 179.179 485.51 177.826C486.729 176.472 488.406 175.617 490.217 175.426C489.962 175.4 489.706 175.386 489.449 175.386C487.494 175.386 485.619 176.163 484.236 177.545C482.854 178.928 482.077 180.803 482.077 182.758C482.077 184.713 482.854 186.588 484.236 187.971C485.619 189.353 487.494 190.13 489.449 190.13C489.706 190.13 489.962 190.117 490.217 190.09C488.406 189.899 486.729 189.044 485.51 187.69C484.292 186.337 483.617 184.58 483.617 182.758Z" fill="#2F2E41"/>
<path id="Vector_57" d="M485.385 217.437C492.171 217.437 497.672 214.136 497.672 210.065C497.672 205.994 492.171 202.693 485.385 202.693C478.599 202.693 473.098 205.994 473.098 210.065C473.098 214.136 478.599 217.437 485.385 217.437Z" fill="#2F2E41"/>
<path id="Vector_58" d="M496.456 225.49C496.913 225.49 497.284 224.6 497.284 223.503C497.284 222.406 496.913 221.516 496.456 221.516C495.999 221.516 495.628 222.406 495.628 223.503C495.628 224.6 495.999 225.49 496.456 225.49Z" fill="#A0616A"/>
</g>
</g>
<defs>
<linearGradient id="paint0_linear" x1="293.809" y1="-82" x2="293.809" y2="786.409" gradientUnits="userSpaceOnUse">
<stop stop-color="#B8DCFB"/>
<stop offset="1" stop-color="#F19573"/>
</linearGradient>
<linearGradient id="paint1_linear" x1="135.807" y1="241.688" x2="443.932" y2="198.688" gradientUnits="userSpaceOnUse">
<stop stop-color="#FDBA9F"/>
<stop offset="0.54" stop-color="#BE5535"/>
<stop offset="1" stop-color="#132F5D"/>
</linearGradient>
<clipPath id="clip0">
<rect width="746" height="768" fill="white"/>
</clipPath>
</defs>
</svg>
